<svg width="1010" height="720" viewBox="0 0 1010 720" fill="none" xmlns="http://www.w3.org/2000/svg">
<rect width="1010" height="80" fill="#00529C"/>
<rect y="79" width="1010" height="640" fill="url(#paint0_linear_70_155)"/>
<g style="mix-blend-mode:soft-light" opacity="0.2" filter="url(#filter0_d_70_155)">
<path fill-rule="evenodd" clip-rule="evenodd" d="M733.457 562.766C796.975 481.045 848.71 382.079 857.849 287.883C838.874 260.947 823.764 246.993 812.577 241.112C806.82 238.085 802.847 237.589 800.21 237.817C797.644 238.039 794.741 239.08 791.272 241.919C783.576 248.215 775.298 261.575 767.649 283.098C760.218 304.009 754.241 330.102 749.507 358.917C740.05 416.487 735.935 482.525 734.209 534.517C733.876 544.532 733.633 554.003 733.457 562.766ZM857.445 227.287C843.472 110.127 752.082 43.1113 659.925 7.98825L705.794 392.956C707.441 379.309 709.326 365.799 711.483 352.671C716.405 322.704 722.836 294.122 731.34 270.195C739.625 246.88 750.807 225.238 766.87 212.095C775.28 205.214 785.331 200.426 796.89 199.427C808.379 198.433 819.702 201.323 830.509 207.004C839.396 211.676 848.353 218.454 857.445 227.287ZM617.82 -5.96636C574.372 -18.3329 533.447 -24.0064 503.5 -25L555.895 553.358L617.82 -5.96636ZM462.722 -22.8784C421.305 -17.4382 366.845 -2.24214 313.963 23.0345L379.339 560.806L462.722 -22.8784ZM270.696 46.3638C193.348 93.3106 129 163.756 129 258.841C129 295.516 137.619 334.842 152.341 374.663C163.63 365.17 174.478 352.125 184.868 335.679C207.174 300.372 224.78 253.304 238.3 205.231C251.754 157.396 260.847 109.727 266.579 73.9135C268.223 63.6389 269.588 54.3624 270.696 46.3638ZM167.601 411.522C187.198 397.708 203.684 378.043 217.446 356.26C242.658 316.353 261.473 265.167 275.396 215.664C281.394 194.335 286.544 173.099 290.933 152.906L352.974 663.241C283.582 599.273 210.713 505.872 167.601 411.522ZM398.22 701.112L479.222 134.104L533.765 736.183C518.919 742.381 505.511 745.694 494.142 745.693C469.638 745.692 435.662 729.115 398.22 701.112ZM577.026 712.677L638.704 155.582L692.955 610.902C654.139 653.546 613.505 688.894 577.026 712.677Z" fill="#00ADA4"/>
</g>
<defs>
<filter id="filter0_d_70_155" x="89" y="-25" width="808.849" height="850.693" filterUnits="userSpaceOnUse" color-interpolation-filters="sRGB">
<feFlood flood-opacity="0" result="BackgroundImageFix"/>
<feColorMatrix in="SourceAlpha" type="matrix" values="0 0 0 0 0 0 0 0 0 0 0 0 0 0 0 0 0 0 127 0" result="hardAlpha"/>
<feOffset dy="40"/>
<feGaussianBlur stdDeviation="20"/>
<feComposite in2="hardAlpha" operator="out"/>
<feColorMatrix type="matrix" values="0 0 0 0 0 0 0 0 0 0 0 0 0 0 0 0 0 0 1 0"/>
<feBlend mode="normal" in2="BackgroundImageFix" result="effect1_dropShadow_70_155"/>
<feBlend mode="normal" in="SourceGraphic" in2="effect1_dropShadow_70_155" result="shape"/>
</filter>
<linearGradient id="paint0_linear_70_155" x1="505" y1="79" x2="505" y2="719" gradientUnits="userSpaceOnUse">
<stop stop-color="#00529C"/>
<stop offset="1" stop-color="#00ADA4"/>
</linearGradient>
</defs>
</svg>
