<svg width="199" height="52" viewBox="0 0 199 52" fill="none" xmlns="http://www.w3.org/2000/svg">
<path d="M46.8908 41L52.6821 13.6157H59.1255C61.8869 13.6157 64.0219 14.2038 65.5305 15.38C67.0646 16.5561 67.8317 18.3971 67.8317 20.9029C67.8317 22.2836 67.5888 23.5237 67.103 24.6231C66.6172 25.7226 65.9013 26.6559 64.9552 27.4229C64.0092 28.19 62.8586 28.7781 61.5034 29.1872L66.2592 41H60.9665L57.0928 30.1844H54.0245L51.7233 41H46.8908ZM56.901 26.1573C57.8982 26.1573 58.7675 26.0422 59.509 25.8121C60.2505 25.582 60.8642 25.2623 61.35 24.8532C61.8614 24.4441 62.2449 23.9328 62.5006 23.3191C62.7563 22.6799 62.8841 21.9767 62.8841 21.2097C62.8841 19.9824 62.5389 19.1002 61.8486 18.5633C61.1582 18.0008 60.0843 17.7195 58.6269 17.7195H56.6709L54.8683 26.1573H56.901ZM75.4919 41.3835C73.881 41.3835 72.4748 41.0895 71.273 40.5014C70.0969 39.8878 69.1764 38.9928 68.5116 37.8167C67.8724 36.6149 67.5527 35.1447 67.5527 33.406C67.5527 31.6929 67.7957 30.0309 68.2815 28.4201C68.7673 26.8093 69.4832 25.3646 70.4292 24.0862C71.3753 22.7822 72.5387 21.7466 73.9194 20.9796C75.3001 20.2125 76.8982 19.829 78.7136 19.829C80.9125 19.829 82.5489 20.3276 83.6228 21.3247C84.7223 22.2964 85.272 23.5876 85.272 25.1984C85.272 26.2468 85.0291 27.2184 84.5433 28.1133C84.0575 29.0082 83.3288 29.788 82.3571 30.4528C81.3855 31.0921 80.1454 31.5906 78.6369 31.9486C77.1283 32.281 75.3385 32.4472 73.2674 32.4472H72.4236C72.3981 32.6262 72.3725 32.8052 72.3469 32.9842C72.3469 33.1631 72.3469 33.3293 72.3469 33.4827C72.3469 34.7612 72.6921 35.7839 73.3825 36.551C74.0984 37.2925 75.1084 37.6633 76.4124 37.6633C77.4607 37.6633 78.4323 37.5354 79.3272 37.2797C80.2221 37.024 81.2449 36.6277 82.3955 36.0908V39.811C81.3472 40.3224 80.2861 40.7187 79.2122 41C78.1638 41.2557 76.9237 41.3835 75.4919 41.3835ZM73.6126 29.0721C75.0956 29.0721 76.3612 28.9315 77.4096 28.6502C78.4579 28.3434 79.2633 27.9087 79.8258 27.3462C80.3883 26.7837 80.6696 26.1189 80.6696 25.3518C80.6696 24.7382 80.4778 24.2652 80.0943 23.9328C79.7108 23.5748 79.1482 23.3958 78.4067 23.3958C77.6652 23.3958 76.9237 23.6387 76.1822 24.1245C75.4663 24.5848 74.8271 25.2368 74.2646 26.0806C73.7021 26.9243 73.2802 27.9215 72.9989 29.0721H73.6126ZM91.146 41.3835C90.1233 41.3835 89.1644 41.1278 88.2695 40.6165C87.4002 40.1051 86.6971 39.3125 86.1601 38.2386C85.6487 37.1391 85.393 35.7328 85.393 34.0197C85.393 32.5878 85.5337 31.1815 85.8149 29.8008C86.1218 28.4201 86.5564 27.1289 87.1189 25.9271C87.6815 24.7254 88.3718 23.6771 89.19 22.7822C90.0082 21.8617 90.9159 21.1458 91.9131 20.6344C92.9359 20.0974 94.0353 19.829 95.2115 19.829C96.1064 19.829 96.8863 19.9696 97.551 20.2508C98.2158 20.5321 98.7783 20.9156 99.2386 21.4014C99.7244 21.8873 100.108 22.4498 100.389 23.089H100.581L101.693 20.2125H105.375L100.964 41H97.3209L97.6661 37.855H97.5127C96.9757 38.5198 96.3877 39.1207 95.7484 39.6576C95.1348 40.1946 94.4444 40.6165 93.6774 40.9233C92.9103 41.2301 92.0665 41.3835 91.146 41.3835ZM92.9486 37.4715C93.7924 37.4715 94.5851 37.1519 95.3265 36.5127C96.0936 35.8734 96.7584 35.0297 97.3209 33.9813C97.909 32.933 98.3437 31.7952 98.6249 30.5679C98.7528 29.9798 98.8423 29.4173 98.8934 28.8803C98.9445 28.3178 98.9701 27.7553 98.9701 27.1928C98.9701 26.17 98.7016 25.3391 98.1647 24.6998C97.6277 24.0606 96.8863 23.741 95.9402 23.741C95.301 23.741 94.6873 23.9328 94.0992 24.3163C93.5367 24.6743 93.0126 25.1856 92.5268 25.8504C92.0665 26.5152 91.6574 27.2823 91.2995 28.1516C90.9671 28.9954 90.6986 29.9159 90.494 30.9131C90.315 31.8847 90.2256 32.8691 90.2256 33.8663C90.2256 35.068 90.4557 35.9757 90.9159 36.5894C91.4017 37.1775 92.0793 37.4715 92.9486 37.4715ZM110.667 41.3835C109.287 41.3835 108.046 41.2557 106.947 41C105.873 40.7187 104.927 40.348 104.109 39.8878V35.4004C104.774 35.7584 105.451 36.078 106.142 36.3592C106.832 36.6405 107.548 36.8706 108.289 37.0496C109.056 37.203 109.862 37.2797 110.706 37.2797C111.422 37.2797 112.086 37.203 112.7 37.0496C113.339 36.8962 113.889 36.6661 114.349 36.3592C114.809 36.0524 115.18 35.6689 115.461 35.2086C115.743 34.7228 115.883 34.1475 115.883 33.4827C115.883 32.7924 115.73 32.1915 115.423 31.6801C115.142 31.1688 114.72 30.6957 114.157 30.2611C113.62 29.8008 112.943 29.315 112.125 28.8036C111.281 28.2156 110.488 27.5891 109.747 26.9243C109.031 26.2595 108.443 25.4797 107.983 24.5848C107.548 23.6899 107.331 22.6288 107.331 21.4014C107.331 20.1486 107.548 19.0363 107.983 18.0647C108.443 17.0675 109.082 16.211 109.9 15.495C110.744 14.7535 111.728 14.191 112.853 13.8075C113.978 13.424 115.219 13.2322 116.574 13.2322C118.006 13.2322 119.297 13.3856 120.447 13.6924C121.624 13.9737 122.736 14.4084 123.784 14.9964L122.02 18.7934C121.176 18.3843 120.294 18.0519 119.373 17.7962C118.453 17.515 117.52 17.3743 116.574 17.3743C115.96 17.3743 115.398 17.4638 114.886 17.6428C114.375 17.7962 113.927 18.0391 113.544 18.3715C113.186 18.6784 112.892 19.0619 112.662 19.5221C112.457 19.9824 112.355 20.4938 112.355 21.0563C112.355 21.7466 112.483 22.3347 112.738 22.8205C113.02 23.3063 113.429 23.7538 113.966 24.1629C114.503 24.572 115.155 25.0194 115.922 25.5053C116.97 26.17 117.852 26.8604 118.568 27.5763C119.31 28.2923 119.872 29.0849 120.256 29.9542C120.639 30.8236 120.831 31.8336 120.831 32.9842C120.831 34.3904 120.575 35.6177 120.064 36.6661C119.552 37.7144 118.837 38.5965 117.916 39.3125C116.996 40.0028 115.909 40.527 114.656 40.8849C113.429 41.2173 112.099 41.3835 110.667 41.3835ZM130.284 41.3452C128.725 41.3452 127.344 41.0256 126.142 40.3863C124.966 39.7471 124.046 38.8266 123.381 37.6249C122.742 36.4232 122.422 35.0041 122.422 33.3677C122.422 31.9614 122.563 30.6062 122.844 29.3022C123.125 27.9727 123.547 26.7453 124.11 25.6203C124.698 24.4697 125.426 23.4725 126.296 22.6288C127.165 21.7594 128.175 21.0818 129.326 20.596C130.476 20.1102 131.767 19.8673 133.199 19.8673C134.836 19.8673 136.229 20.1997 137.38 20.8645C138.556 21.5037 139.464 22.437 140.103 23.6643C140.742 24.866 141.062 26.3235 141.062 28.0366C141.062 29.3662 140.921 30.683 140.64 31.987C140.359 33.291 139.924 34.5055 139.336 35.6305C138.773 36.7556 138.07 37.7528 137.226 38.6221C136.383 39.4659 135.373 40.1307 134.196 40.6165C133.046 41.1023 131.742 41.3452 130.284 41.3452ZM130.63 37.4331C131.294 37.4331 131.908 37.2797 132.471 36.9729C133.059 36.6405 133.583 36.193 134.043 35.6305C134.503 35.0424 134.887 34.3521 135.194 33.5595C135.526 32.7668 135.769 31.8975 135.922 30.9514C136.101 29.9798 136.191 28.9571 136.191 27.8832C136.191 27.1417 136.089 26.4641 135.884 25.8504C135.679 25.2368 135.334 24.7382 134.848 24.3547C134.388 23.9711 133.762 23.7794 132.969 23.7794C132.202 23.7794 131.512 23.9711 130.898 24.3547C130.31 24.7126 129.786 25.2112 129.326 25.8504C128.865 26.4897 128.482 27.2312 128.175 28.0749C127.868 28.8931 127.625 29.7625 127.446 30.683C127.293 31.5779 127.216 32.4856 127.216 33.406C127.216 34.7101 127.51 35.7072 128.098 36.3976C128.686 37.088 129.53 37.4331 130.63 37.4331ZM140.876 41L145.325 20.1741H149.122L148.738 24.0095H148.853C149.364 23.2424 149.94 22.5393 150.579 21.9C151.244 21.2608 151.985 20.7494 152.804 20.3659C153.622 19.9824 154.542 19.7906 155.565 19.7906C156.716 19.7906 157.687 20.0207 158.48 20.481C159.298 20.9412 159.912 21.5932 160.321 22.437C160.73 23.2808 160.934 24.2907 160.934 25.4669C160.934 25.9783 160.883 26.528 160.781 27.1161C160.704 27.7042 160.615 28.2923 160.513 28.8803L157.943 41H153.072L155.68 28.4968C155.808 28.011 155.897 27.5763 155.948 27.1928C156 26.8093 156.025 26.4513 156.025 26.1189C156.025 25.3263 155.833 24.7382 155.45 24.3547C155.092 23.9711 154.542 23.7794 153.801 23.7794C152.957 23.7794 152.126 24.1245 151.308 24.8149C150.515 25.4797 149.799 26.4513 149.16 27.7297C148.521 28.9826 148.009 30.4912 147.626 32.2554L145.746 41H140.876ZM167.559 41.3835C166.434 41.3835 165.475 41.1534 164.683 40.6932C163.915 40.2329 163.327 39.5809 162.918 38.7372C162.509 37.8934 162.305 36.8834 162.305 35.7072C162.305 35.1959 162.343 34.6206 162.42 33.9813C162.522 33.3165 162.637 32.6518 162.765 31.987L165.258 20.2125H170.052L167.406 32.7157C167.303 33.1759 167.227 33.6106 167.176 34.0197C167.124 34.4032 167.099 34.7484 167.099 35.0552C167.099 35.8479 167.278 36.4487 167.636 36.8578C168.019 37.2669 168.595 37.4715 169.362 37.4715C170.231 37.4715 171.062 37.1391 171.855 36.4743C172.673 35.7839 173.402 34.7995 174.041 33.5211C174.706 32.2427 175.217 30.7213 175.575 28.9571L177.454 20.2125H182.21L177.799 41H174.079L174.463 37.1647H174.271C173.76 37.9062 173.184 38.6093 172.545 39.2741C171.906 39.9133 171.177 40.4247 170.359 40.8082C169.541 41.1918 168.607 41.3835 167.559 41.3835ZM186.764 41.3835C185.485 41.3835 184.347 41.2685 183.35 41.0384C182.379 40.8338 181.496 40.527 180.704 40.1179V36.0524C181.548 36.5382 182.468 36.9473 183.465 37.2797C184.462 37.5866 185.485 37.74 186.533 37.74C187.301 37.74 187.965 37.6377 188.528 37.4331C189.116 37.2286 189.576 36.9345 189.909 36.551C190.241 36.1419 190.407 35.6689 190.407 35.1319C190.407 34.6973 190.318 34.3265 190.139 34.0197C189.96 33.7129 189.64 33.3933 189.18 33.0609C188.72 32.7029 188.042 32.281 187.147 31.7952C186.252 31.2838 185.485 30.7724 184.846 30.2611C184.232 29.7241 183.759 29.1233 183.427 28.4585C183.12 27.7937 182.967 27.0266 182.967 26.1573C182.967 24.8277 183.273 23.6899 183.887 22.7438C184.501 21.7978 185.37 21.0818 186.495 20.596C187.646 20.0847 189.001 19.829 190.561 19.829C191.788 19.829 192.951 19.9696 194.051 20.2508C195.15 20.5321 196.186 20.9284 197.157 21.4398L195.585 24.9683C194.869 24.5848 194.102 24.2524 193.284 23.9711C192.465 23.6643 191.583 23.5109 190.637 23.5109C189.845 23.5109 189.167 23.7026 188.605 24.0862C188.068 24.4697 187.799 24.9939 187.799 25.6587C187.799 26.0422 187.889 26.3874 188.068 26.6942C188.247 27.001 188.553 27.3079 188.988 27.6147C189.448 27.9215 190.062 28.2795 190.829 28.6886C191.698 29.1744 192.465 29.673 193.13 30.1844C193.795 30.6957 194.319 31.2966 194.703 31.987C195.086 32.6773 195.278 33.4955 195.278 34.4416C195.278 35.9501 194.92 37.2286 194.204 38.2769C193.514 39.2997 192.529 40.0795 191.251 40.6165C189.998 41.1278 188.502 41.3835 186.764 41.3835Z" fill="white"/>
<path fill-rule="evenodd" clip-rule="evenodd" d="M33.7028 36.8915C36.984 32.575 39.6417 27.4381 40.2399 22.5066C39.1113 20.8523 38.2455 20.0542 37.6526 19.7424C37.3715 19.5946 37.2059 19.5849 37.1253 19.5918C37.0496 19.5984 36.9416 19.6284 36.7862 19.7555C36.4224 20.0532 35.9862 20.7308 35.5681 21.9073C35.1652 23.0409 34.8382 24.4649 34.5779 26.0492C34.0581 29.2135 33.8311 32.8496 33.7359 35.7189C33.7223 36.1274 33.7115 36.5195 33.7028 36.8915ZM40.2041 18.2829C39.2776 12.2056 34.5192 8.64693 29.6459 6.72193L31.9052 25.6836L31.9169 25.6121C32.1903 23.9472 32.5492 22.349 33.0271 21.0043C33.4897 19.7023 34.1291 18.4452 35.0786 17.6684C35.5798 17.2583 36.1879 16.9661 36.8929 16.9051C37.5931 16.8446 38.273 17.0219 38.9075 17.3555C39.3402 17.583 39.7716 17.8934 40.2041 18.2829ZM26.7428 5.75723C24.5793 5.16412 22.5448 4.87062 20.9859 4.79419L23.6246 33.9212L26.7428 5.75723ZM18.1543 4.94041C15.9767 5.26126 13.2084 6.0464 10.4937 7.31015L13.86 35.0004L18.1543 4.94041ZM7.51892 8.92033C3.38444 11.5138 2.39513e-05 15.3448 1.53138e-10 20.4716C-9.4379e-06 22.4114 0.43624 24.4854 1.18683 26.5891C1.75267 26.0961 2.30737 25.424 2.84852 24.5674C4.06008 22.6496 5.02437 20.0783 5.76874 17.4316C6.50845 14.8015 7.00901 12.1781 7.32481 10.205C7.39986 9.73604 7.46431 9.30489 7.51892 8.92033ZM2.2545 29.1724C3.39927 28.3769 4.34876 27.2418 5.12839 26.0077C6.54332 23.768 7.59221 20.9085 8.36474 18.1617C8.54485 17.5213 8.71115 16.8826 8.86442 16.2538L12.0581 42.5245C8.38486 39.0609 4.58309 34.1526 2.2545 29.1724ZM15.14 45.1091L19.2953 16.0218L22.0986 46.9663C21.3869 47.238 20.7406 47.3822 20.1831 47.3822C18.8854 47.3821 17.107 46.541 15.14 45.1091ZM25.0722 45.3528L28.184 17.2458L30.9198 40.2068C28.9601 42.3232 26.9279 44.0979 25.0722 45.3528Z" fill="white"/>
</svg>
